<mxfile host="drawio-plugin" modified="2023-11-29T10:35:08.272Z" agent="5.0 (Windows NT 6.2; Win64; x64) AppleWebKit/537.36 (KHTML, like Gecko) Chrome/104.0.5112.102 Safari/537.36" etag="hL8swRPiYsm93oEsZ3Ez" version="20.5.3" type="embed"><diagram id="C5RBs43oDa-KdzZeNtuy" name="Page-1"><mxGraphModel dx="766" dy="406" grid="1" gridSize="10" guides="1" tooltips="1" connect="1" arrows="1" fold="1" page="1" pageScale="1" pageWidth="827" pageHeight="1169" math="0" shadow="0"><root><mxCell id="WIyWlLk6GJQsqaUBKTNV-0"/><mxCell id="WIyWlLk6GJQsqaUBKTNV-1" parent="WIyWlLk6GJQsqaUBKTNV-0"/><mxCell id="0" value="Book" style="swimlane;fontStyle=0;childLayout=stackLayout;horizontal=1;startSize=26;fillColor=none;horizontalStack=0;resizeParent=1;resizeParentMax=0;resizeLast=0;collapsible=1;marginBottom=0;" vertex="1" parent="WIyWlLk6GJQsqaUBKTNV-1"><mxGeometry x="140" y="224" width="160" height="130" as="geometry"/></mxCell><mxCell id="1" value="content_table: dict[int:str]" style="text;strokeColor=none;fillColor=none;align=left;verticalAlign=top;spacingLeft=4;spacingRight=4;overflow=hidden;rotatable=0;points=[[0,0.5],[1,0.5]];portConstraint=eastwest;" vertex="1" parent="0"><mxGeometry y="26" width="160" height="26" as="geometry"/></mxCell><mxCell id="2" value="title: str" style="text;strokeColor=none;fillColor=none;align=left;verticalAlign=top;spacingLeft=4;spacingRight=4;overflow=hidden;rotatable=0;points=[[0,0.5],[1,0.5]];portConstraint=eastwest;" vertex="1" parent="0"><mxGeometry y="52" width="160" height="26" as="geometry"/></mxCell><mxCell id="22" value="authors: list[Author]" style="text;strokeColor=none;fillColor=none;align=left;verticalAlign=top;spacingLeft=4;spacingRight=4;overflow=hidden;rotatable=0;points=[[0,0.5],[1,0.5]];portConstraint=eastwest;" vertex="1" parent="0"><mxGeometry y="78" width="160" height="26" as="geometry"/></mxCell><mxCell id="25" value="publishers: list[Publisher]" style="text;strokeColor=none;fillColor=none;align=left;verticalAlign=top;spacingLeft=4;spacingRight=4;overflow=hidden;rotatable=0;points=[[0,0.5],[1,0.5]];portConstraint=eastwest;" vertex="1" parent="0"><mxGeometry y="104" width="160" height="26" as="geometry"/></mxCell><mxCell id="4" value="ISBN10" style="swimlane;fontStyle=0;childLayout=stackLayout;horizontal=1;startSize=26;fillColor=none;horizontalStack=0;resizeParent=1;resizeParentMax=0;resizeLast=0;collapsible=1;marginBottom=0;" vertex="1" parent="WIyWlLk6GJQsqaUBKTNV-1"><mxGeometry x="600" y="203" width="140" height="52" as="geometry"/></mxCell><mxCell id="5" value="isbn: str" style="text;strokeColor=none;fillColor=none;align=left;verticalAlign=top;spacingLeft=4;spacingRight=4;overflow=hidden;rotatable=0;points=[[0,0.5],[1,0.5]];portConstraint=eastwest;" vertex="1" parent="4"><mxGeometry y="26" width="140" height="26" as="geometry"/></mxCell><mxCell id="8" value="ISBN13" style="swimlane;fontStyle=0;childLayout=stackLayout;horizontal=1;startSize=26;fillColor=none;horizontalStack=0;resizeParent=1;resizeParentMax=0;resizeLast=0;collapsible=1;marginBottom=0;" vertex="1" parent="WIyWlLk6GJQsqaUBKTNV-1"><mxGeometry x="600" y="318.06" width="140" height="52" as="geometry"><mxRectangle x="520" y="263" width="80" height="30" as="alternateBounds"/></mxGeometry></mxCell><mxCell id="9" value="isbn: str" style="text;strokeColor=none;fillColor=none;align=left;verticalAlign=top;spacingLeft=4;spacingRight=4;overflow=hidden;rotatable=0;points=[[0,0.5],[1,0.5]];portConstraint=eastwest;" vertex="1" parent="8"><mxGeometry y="26" width="140" height="26" as="geometry"/></mxCell><mxCell id="13" value="Publisher" style="swimlane;fontStyle=0;childLayout=stackLayout;horizontal=1;startSize=26;fillColor=none;horizontalStack=0;resizeParent=1;resizeParentMax=0;resizeLast=0;collapsible=1;marginBottom=0;" vertex="1" parent="WIyWlLk6GJQsqaUBKTNV-1"><mxGeometry x="600" y="400" width="140" height="52" as="geometry"/></mxCell><mxCell id="14" value="name: str" style="text;strokeColor=none;fillColor=none;align=left;verticalAlign=top;spacingLeft=4;spacingRight=4;overflow=hidden;rotatable=0;points=[[0,0.5],[1,0.5]];portConstraint=eastwest;" vertex="1" parent="13"><mxGeometry y="26" width="140" height="26" as="geometry"/></mxCell><mxCell id="17" value="Author" style="swimlane;fontStyle=0;childLayout=stackLayout;horizontal=1;startSize=26;fillColor=none;horizontalStack=0;resizeParent=1;resizeParentMax=0;resizeLast=0;collapsible=1;marginBottom=0;" vertex="1" parent="WIyWlLk6GJQsqaUBKTNV-1"><mxGeometry x="600" y="460" width="140" height="52" as="geometry"/></mxCell><mxCell id="18" value="name: str" style="text;strokeColor=none;fillColor=none;align=left;verticalAlign=top;spacingLeft=4;spacingRight=4;overflow=hidden;rotatable=0;points=[[0,0.5],[1,0.5]];portConstraint=eastwest;" vertex="1" parent="17"><mxGeometry y="26" width="140" height="26" as="geometry"/></mxCell><mxCell id="28" value="" style="endArrow=diamondThin;endFill=1;endSize=24;html=1;rounded=0;" edge="1" parent="WIyWlLk6GJQsqaUBKTNV-1" source="29" target="0"><mxGeometry width="160" relative="1" as="geometry"><mxPoint x="490" y="460" as="sourcePoint"/><mxPoint x="330" y="460" as="targetPoint"/></mxGeometry></mxCell><mxCell id="29" value="ISBNS" style="swimlane;fontStyle=0;childLayout=stackLayout;horizontal=1;startSize=26;fillColor=none;horizontalStack=0;resizeParent=1;resizeParentMax=0;resizeLast=0;collapsible=1;marginBottom=0;" vertex="1" parent="WIyWlLk6GJQsqaUBKTNV-1"><mxGeometry x="370" y="263" width="160" height="52" as="geometry"/></mxCell><mxCell id="30" value="isbn: list[ISBN10 | ISBN13]" style="text;strokeColor=none;fillColor=none;align=left;verticalAlign=top;spacingLeft=4;spacingRight=4;overflow=hidden;rotatable=0;points=[[0,0.5],[1,0.5]];portConstraint=eastwest;" vertex="1" parent="29"><mxGeometry y="26" width="160" height="26" as="geometry"/></mxCell><mxCell id="34" value="" style="endArrow=none;html=1;edgeStyle=orthogonalEdgeStyle;rounded=0;" edge="1" parent="WIyWlLk6GJQsqaUBKTNV-1" source="29" target="4"><mxGeometry relative="1" as="geometry"><mxPoint x="334" y="380" as="sourcePoint"/><mxPoint x="494" y="380" as="targetPoint"/></mxGeometry></mxCell><mxCell id="36" value="0.." style="edgeLabel;resizable=0;html=1;align=right;verticalAlign=bottom;" connectable="0" vertex="1" parent="34"><mxGeometry x="1" relative="1" as="geometry"><mxPoint x="-10" y="21" as="offset"/></mxGeometry></mxCell><mxCell id="37" value="" style="endArrow=none;html=1;edgeStyle=orthogonalEdgeStyle;rounded=0;" edge="1" parent="WIyWlLk6GJQsqaUBKTNV-1" source="29" target="8"><mxGeometry relative="1" as="geometry"><mxPoint x="300" y="400" as="sourcePoint"/><mxPoint x="460" y="400" as="targetPoint"/></mxGeometry></mxCell><mxCell id="38" value="1" style="edgeLabel;resizable=0;html=1;align=left;verticalAlign=bottom;" connectable="0" vertex="1" parent="37"><mxGeometry x="-1" relative="1" as="geometry"/></mxCell><mxCell id="39" value="0.." style="edgeLabel;resizable=0;html=1;align=right;verticalAlign=bottom;" connectable="0" vertex="1" parent="37"><mxGeometry x="1" relative="1" as="geometry"><mxPoint x="-10" y="-3" as="offset"/></mxGeometry></mxCell></root></mxGraphModel></diagram></mxfile>